<?xml version="1.0" encoding="UTF-8"?>
<!-- Created with Inkscape (http://www.inkscape.org/) -->
<svg width="240mm" height="240mm" version="1.1" viewBox="0 0 240 240" xml:space="preserve" xmlns="http://www.w3.org/2000/svg"><g fill="#f0dc4e"><rect x="-3.5527e-15" y="7.1054e-15" width="240" height="240" ry="6.0514"/><path d="m69.078 222.05q-11.579 0-21.365-4.2403-9.6223-4.4034-15.82-12.395l14.678-17.614q4.7296 6.1974 9.9485 9.4592 5.2189 3.0987 11.253 3.0987 16.146 0 16.146-18.918v-54.309h-40.12v-21.202h66.378v74.043q0 21.202-10.438 31.639t-30.661 10.438zm104.7 0q-13.7 0-26.257-3.588-12.558-3.7511-20.223-9.6223l8.97-19.897q7.339 5.2189 17.288 8.6438 10.112 3.2618 20.386 3.2618 7.8283 0 12.558-1.4678 4.8927-1.6309 7.176-4.4034t2.2833-6.3605q0-4.5665-3.588-7.176-3.588-2.7725-9.4592-4.4034-5.8712-1.794-13.047-3.2618-7.0129-1.6309-14.189-3.9142-7.0129-2.2833-12.884-5.8712t-9.6223-9.4592q-3.588-5.8712-3.588-15.004 0-9.7854 5.2189-17.777 5.382-8.1545 15.983-12.884 10.764-4.8927 26.91-4.8927 10.764 0 21.202 2.6094 10.438 2.4464 18.429 7.5021l-8.1545 20.06q-7.9914-4.5665-15.983-6.6867-7.9914-2.2833-15.657-2.2833t-12.558 1.794-7.0129 4.7296q-2.1202 2.7725-2.1202 6.5236 0 4.4034 3.588 7.176 3.588 2.6094 9.4592 4.2403t12.884 3.2618q7.176 1.6309 14.189 3.7511 7.176 2.1202 13.047 5.7082t9.4592 9.4592q3.7511 5.8712 3.7511 14.841 0 9.6223-5.382 17.614t-16.146 12.884q-10.601 4.8927-26.91 4.8927z" fill="#2e302c" stroke-linecap="round" stroke-linejoin="round" stroke-width="4" aria-label="JS"/></g></svg>
